<svg xmlns="http://www.w3.org/2000/svg" version="1.1" xmlns:xlink="http://www.w3.org/1999/xlink" xmlns:svgjs="http://svgjs.dev/svgjs" width="2000" height="1999" viewBox="0 0 2000 1999"><g transform="matrix(1,0,0,1,-0.431486880466764,-0.4312711370263287)"><svg viewBox="0 0 343 343" data-background-color="#131313" preserveAspectRatio="xMidYMid meet" height="1999" width="2000" xmlns="http://www.w3.org/2000/svg" xmlns:xlink="http://www.w3.org/1999/xlink"><g id="tight-bounds" transform="matrix(1,0,0,1,0.0740000000000407,0.07400000000001228)"><svg viewBox="0 0 342.85155851775386 342.85155851775386" height="342.85155851775386" width="342.85155851775386"><g><svg></svg></g><g><svg viewBox="0 0 342.85155851775386 342.85155851775386" height="342.85155851775386" width="342.85155851775386"><g><path d="M0 171.426c0-94.676 76.75-171.426 171.426-171.426 94.676 0 171.426 76.75 171.426 171.426 0 94.676-76.75 171.426-171.426 171.426-94.676 0-171.426-76.75-171.426-171.426zM171.426 331.051c88.159 0 159.625-71.467 159.625-159.625 0-88.159-71.467-159.625-159.625-159.626-88.159 0-159.625 71.467-159.626 159.626 0 88.159 71.467 159.625 159.626 159.625z" data-fill-palette-color="tertiary" fill="#ffffff" stroke="transparent"></path><ellipse rx="164.56874808852186" ry="164.56874808852186" cx="171.42577925887693" cy="171.42577925887693" fill="#ffffff" stroke="transparent" stroke-width="0" fill-opacity="1" data-fill-palette-color="tertiary"></ellipse></g><g transform="matrix(1,0,0,1,64.84655864529837,105.99946628522875)"><svg viewBox="0 0 213.1584412271571 130.85262594729636" height="130.85262594729636" width="213.1584412271571"><g><svg viewBox="0 0 213.1584412271571 130.85262594729636" height="130.85262594729636" width="213.1584412271571"><g><svg viewBox="0 0 213.1584412271571 130.85262594729636" height="130.85262594729636" width="213.1584412271571"><g id="textblocktransform"><svg viewBox="0 0 213.1584412271571 130.85262594729636" height="130.85262594729636" width="213.1584412271571" id="textblock"><g><svg viewBox="0 0 213.1584412271571 130.85262594729636" height="130.85262594729636" width="213.1584412271571"><g transform="matrix(1,0,0,1,0,0)"><svg width="213.1584412271571" viewBox="0.05 -32.15 53.49 32.83" height="130.85262594729636" data-palette-color="#131313"><path d="M13.92-8.89L13.92-8.89Q14.72-9.03 14.72-9.7 14.72-10.38 14.29-11.22 13.87-12.06 13.04-12.82L13.04-12.82Q10.86-14.77 7.15-14.77L7.15-14.77Q5.32-14.77 3.74-14.16L3.74-14.16Q2.05-15.01 1.05-16.87 0.05-18.73 0.05-20.87L0.05-20.87Q0.05-26.49 4.74-29.54L4.74-29.54Q8.76-32.15 14.67-32.15L14.67-32.15Q19.07-32.15 22.07-31.21 25.07-30.27 26.98-28.81L26.98-28.81Q27.54-27.2 27.54-25.46 27.54-23.73 27.08-22.31 26.61-20.9 25.73-20.04L25.73-20.04Q24.9-20.65 22.73-21.29 20.56-21.92 18.77-21.92 16.99-21.92 16.39-21.7 15.8-21.48 15.8-21.02L15.8-21.02Q15.8-20.8 15.87-20.61L15.87-20.61Q16.72-20.83 18.07-20.83L18.07-20.83Q22.83-20.83 25.83-18.58L25.83-18.58Q29.37-15.89 29.37-10.52L29.37-10.52Q29.37-5.79 25.54-2.66L25.54-2.66Q21.39 0.68 14.38 0.68L14.38 0.68Q10.52 0.68 7.69 0.11 4.86-0.46 2.17-1.9L2.17-1.9Q0.34-4.57 0.34-7.31 0.34-10.06 2.22-11.87 4.1-13.67 6.85-13.67 9.59-13.67 11.34-12.55 13.09-11.43 13.92-8.89ZM53.54-27.44L53.54-11.16Q53.54-6.01 50.27-2.78L50.27-2.78Q46.8 0.68 40.7 0.68L40.7 0.68Q37.2 0.68 34.08-1.12L34.08-1.12Q31.69-2.49 30.44-4.27L30.44-4.27Q30.2-5.76 30.2-6.98L30.2-6.98Q30.2-10.96 32.61-13.09L32.61-13.09Q34.57-14.79 37.42-14.79L37.42-14.79Q39.6-14.79 41.38-13.65L41.38-13.65Q43.19-12.43 44.04-10.28L44.04-10.28Q44.82-10.28 44.82-11.08L44.82-11.08Q44.82-11.5 44.47-12.18 44.11-12.87 43.45-13.55L43.45-13.55Q41.72-15.33 39.28-15.75L39.28-15.75 39.28-29.81Q40.5-30.71 42.36-31.32 44.21-31.93 46.58-31.93 48.95-31.93 50.85-31.1L50.85-31.1Q53.54-29.88 53.54-27.44L53.54-27.44Z" opacity="1" transform="matrix(1,0,0,1,0,0)" fill="#000000" class="wordmark-text-0" data-fill-palette-color="quaternary" id="text-0"></path></svg></g></svg></g></svg></g></svg></g><g></g></svg></g></svg></g></svg></g><defs></defs></svg><rect width="342.85155851775386" height="342.85155851775386" fill="none" stroke="none" visibility="hidden"></rect></g></svg></g></svg>